# xmcd
#
# Track frame offsets: 
#        150
#        13522
#        31228
#        42719
#        57410
#        68647
#        81997
#        93764
#        107324
#        116582
#        128391
#        137990
#        150041
#        161869
#        183106
#
# Disc length: 2599 seconds
#
# Revision: 0
# Processed by: cddbd v1.5.2PL0 Copyright (c) Steve Scherf et al.
# Submitted via: ExactAudioCopy v0.95b3
#
DISCID=b30a250f
DTITLE=Booker T. and The MGs  - The Definitive Soul Collection [CD1]
DYEAR=1900
DGENRE=
TTITLE0=Green Onions
TTITLE1=Behave Yourself
TTITLE2=Jellybread
TTITLE3=Home Grown
TTITLE4=Chinese Checkers
TTITLE5=Mo' Onions
TTITLE6=Tic-Tac-Toe
TTITLE7=Soul Dressing
TTITLE8=Can't Be Still
TTITLE9=Terrible Thing
TTITLE10=Boot-Leg
TTITLE11=Outrage
TTITLE12=Be My Lady
TTITLE13=Summertime
TTITLE14=Jingle Bells
EXTD=
EXTT0=
EXTT1=
EXTT2=
EXTT3=
EXTT4=
EXTT5=
EXTT6=
EXTT7=
EXTT8=
EXTT9=
EXTT10=
EXTT11=
EXTT12=
EXTT13=
EXTT14=
PLAYORDER=
